<svg xmlns="http://www.w3.org/2000/svg" width="79.887" height="79.887" viewBox="0 0 79.887 79.887">
  <g id="pinpoint" transform="translate(-3 -3)">
    <path id="Path_25337" data-name="Path 25337" d="M42.943,3A39.943,39.943,0,1,0,82.887,42.943,39.946,39.946,0,0,0,42.943,3ZM67.159,67.159A34,34,0,0,1,45.8,77.074L44.37,65.768H41.517L40.108,77.056A34.259,34.259,0,0,1,8.831,45.779L20.119,44.37V41.517L8.831,40.108A34.259,34.259,0,0,1,40.108,8.831l1.409,11.288H44.37L45.779,8.831A34.259,34.259,0,0,1,77.056,40.108L65.768,41.517V44.37l11.288,1.409A34.072,34.072,0,0,1,67.159,67.159Z" transform="translate(0 0)" fill="#fff"/>
  </g>
</svg>
