<svg id="boardgame" xmlns="http://www.w3.org/2000/svg" width="57.279" height="91.647" viewBox="0 0 57.279 91.647">
  <path id="Path_25340" data-name="Path 25340" d="M57.279,85.919a5.461,5.461,0,0,1-1.7,4.072,5.579,5.579,0,0,1-4.027,1.656H5.728A5.579,5.579,0,0,1,1.7,89.991,5.461,5.461,0,0,1,0,85.919,23.269,23.269,0,0,1,1.79,76.88a35.62,35.62,0,0,1,4.3-7.652L11.1,62.515l4.3-7.652,1.79-9.039a16.055,16.055,0,0,0-.358-3.311,22.842,22.842,0,0,1-11.1-19.6,22.074,22.074,0,0,1,6.712-16.2A22.074,22.074,0,0,1,28.64,0a22.074,22.074,0,0,1,16.2,6.712,22.074,22.074,0,0,1,6.712,16.2,22.842,22.842,0,0,1-11.1,19.6,15.22,15.22,0,0,0-.358,3.311,23.269,23.269,0,0,0,1.79,9.039,35.62,35.62,0,0,0,4.3,7.652l5.012,6.712,4.3,7.652Z" fill="#fff"/>
</svg>
