<svg xmlns="http://www.w3.org/2000/svg" width="63.416" height="84.555" viewBox="0 0 63.416 84.555">
  <g id="person-badge-fill" transform="translate(-6)">
    <g id="Group_13124" data-name="Group 13124" transform="translate(6)">
      <path id="Path_25339" data-name="Path 25339" d="M6,10.569A10.569,10.569,0,0,1,16.569,0H58.847A10.569,10.569,0,0,1,69.416,10.569V73.985A10.569,10.569,0,0,1,58.847,84.555H16.569A10.569,10.569,0,0,1,6,73.985Zm23.781,0a2.642,2.642,0,0,0,0,5.285H45.635a2.642,2.642,0,0,0,0-5.285Zm7.927,47.562A15.854,15.854,0,1,0,21.854,42.277,15.854,15.854,0,0,0,37.708,58.131ZM64.131,72.691c-4.513-4.915-12.562-9.275-26.423-9.275S15.8,67.781,11.285,72.691v1.295a5.285,5.285,0,0,0,5.285,5.285H58.847a5.285,5.285,0,0,0,5.285-5.285Z" transform="translate(-6)" fill="#fff"/>
    </g>
  </g>
</svg>
