<svg xmlns="http://www.w3.org/2000/svg" width="32.604" height="32.604" viewBox="0 0 32.604 32.604">
  <g id="copy" transform="translate(-3 -3)">
    <path id="Path_25348" data-name="Path 25348" d="M35.288,14.329V35.288H14.329V14.329H35.288m0-2.329H14.329A2.329,2.329,0,0,0,12,14.329V35.288a2.329,2.329,0,0,0,2.329,2.329H35.288a2.329,2.329,0,0,0,2.329-2.329V14.329A2.329,2.329,0,0,0,35.288,12Z" transform="translate(-2.014 -2.014)" fill="#fff"/>
    <path id="Path_25349" data-name="Path 25349" d="M5.329,21.631H3V5.329A2.329,2.329,0,0,1,5.329,3h16.3V5.329H5.329Z" fill="#fff"/>
  </g>
</svg>
